# xmcd
#
# Track frame offsets:
#	150
#	18241
#	43614
#	65414
#	82443
#	118342
#	137611
#	155274
#	181737
#	191345
#	215085
#	233841
#
# Disc length: 3323
#
# Revision: 2
# Processed by: cddbd v1.5.1PL0 Copyright (c) Steve Scherf et al.
# Submitted via: audiograbber 1.81.03
# Normalized: r1:DSETVAR1
#
DISCID=a50cf90c
DTITLE=Various Artist - A Taste of Blues and Bluegrass
DYEAR=2002
DGENRE=
TTITLE0=Magic Dick and Jay Geils Band - Little Car Blues
TTITLE1=Eddy "The Chief" Clearwater - Cool Blues Walk
TTITLE2=Smokin Joe Kubek featuring Bnois King - Take Your Best Shot
TTITLE3=Wilson Pickett - It's Harder Now
TTITLE4=Ruth Brown - The Richest One
TTITLE5=Luther "Guitar Junior" Johnson - Walkin' With You Baby
TTITLE6=The Holmes Brothers - The New and Improved Me
TTITLE7=Irma Thomas - Zero Will Power
TTITLE8=Corey Harris - Don't Let The Devil Ride
TTITLE9=Chris Duarte - Metaphor Song
TTITLE10=Chava Alberstein and The Klezmatics - Kh'vel Oyston Di Shikh
TTITLE11=Alison Krauss - Stay
EXTD=
EXTT0=
EXTT1=
EXTT2=
EXTT3=
EXTT4=
EXTT5=
EXTT6=
EXTT7=
EXTT8=
EXTT9=
EXTT10=
EXTT11=
PLAYORDER=
